# xmcd
#
# Track frame offsets: 
#        150
#        17087
#        38162
#        56612
#        79612
#        96662
#        109637
#        134012
#        151937
#        169112
#        176712
#        189287
#        190162
#
# Disc length: 2848 seconds
#
# Revision: 4
# Processed by: cddbd v1.5.2PL0 Copyright (c) Steve Scherf et al.
# Submitted via: ExactAudioCopy v0.99pb5
#
DISCID=a80b1e0d
DTITLE=החברים של נטאשה - שינויים בהרגלי הצריחה
DYEAR=1991
DGENRE=Rock
TTITLE0=בדקה אחת שפויה
TTITLE1=אל תתפשטי לי
TTITLE2=אני אוהב אותך
TTITLE3=עוד נגיעה
TTITLE4=עשי לי את המוות
TTITLE5=שני סיפורי אהבה קטנים
TTITLE6=סדר עולמי חדש
TTITLE7=על קו הזינוק
TTITLE8=איש בלי נצח
TTITLE9=על הסף
TTITLE10=לא שבר. משבר.
TTITLE11=כמעט אופטימי
TTITLE12=אם כבר לבד...
EXTD=YEAR: 1991
EXTT0=
EXTT1=
EXTT2=
EXTT3=
EXTT4=
EXTT5=
EXTT6=
EXTT7=
EXTT8=
EXTT9=
EXTT10=
EXTT11=
EXTT12=
PLAYORDER=
